<svg xmlns="http://www.w3.org/2000/svg" xmlns:xlink="http://www.w3.org/1999/xlink" contentStyleType="text/css" data-diagram-type="CLASS" height="1154px" preserveAspectRatio="none" style="width:757px;height:1154px;background:#FFFFFF;" version="1.1" viewBox="0 0 757 1154" width="757px" zoomAndPan="magnify"><defs/><g><!--cluster src--><g class="cluster" data-entity="src" data-source-line="3" data-uid="ent0004" id="cluster_src"><path d="M8.5,6 L33.0361,6 A3.75,3.75 0 0 1 35.5361,8.5 L42.5361,28.2969 L747.5,28.2969 A2.5,2.5 0 0 1 750,30.7969 L750,1145.48 A2.5,2.5 0 0 1 747.5,1147.98 L8.5,1147.98 A2.5,2.5 0 0 1 6,1145.48 L6,8.5 A2.5,2.5 0 0 1 8.5,6" fill="none" style="stroke:#000000;stroke-width:1.5;"/><line style="stroke:#000000;stroke-width:1.5;" x1="6" x2="42.5361" y1="28.2969" y2="28.2969"/><text fill="#000000" font-family="sans-serif" font-size="14" font-weight="bold" lengthAdjust="spacing" textLength="23.5361" x="10" y="20.9951">src</text></g><!--cluster task--><g class="cluster" data-entity="task" data-source-line="1" data-uid="ent0002" id="cluster_task"><path d="M180.5,49 L215.2832,49 A3.75,3.75 0 0 1 217.7832,51.5 L224.7832,71.2969 L321.5,71.2969 A2.5,2.5 0 0 1 324,73.7969 L324,341.06 A2.5,2.5 0 0 1 321.5,343.56 L180.5,343.56 A2.5,2.5 0 0 1 178,341.06 L178,51.5 A2.5,2.5 0 0 1 180.5,49" fill="none" style="stroke:#000000;stroke-width:1.5;"/><line style="stroke:#000000;stroke-width:1.5;" x1="178" x2="224.7832" y1="71.2969" y2="71.2969"/><text fill="#000000" font-family="sans-serif" font-size="14" font-weight="bold" lengthAdjust="spacing" textLength="33.7832" x="182" y="63.9951">task</text></g><!--cluster zkp--><g class="cluster" data-entity="zkp" data-source-line="19" data-uid="ent0005" id="cluster_zkp"><path d="M32.5,720.42 L60.9805,720.42 A3.75,3.75 0 0 1 63.4805,722.92 L70.4805,742.7169 L723.5,742.7169 A2.5,2.5 0 0 1 726,745.2169 L726,1121.48 A2.5,2.5 0 0 1 723.5,1123.98 L32.5,1123.98 A2.5,2.5 0 0 1 30,1121.48 L30,722.92 A2.5,2.5 0 0 1 32.5,720.42" fill="none" style="stroke:#000000;stroke-width:1.5;"/><line style="stroke:#000000;stroke-width:1.5;" x1="30" x2="70.4805" y1="742.7169" y2="742.7169"/><text fill="#000000" font-family="sans-serif" font-size="14" font-weight="bold" lengthAdjust="spacing" textLength="27.4805" x="34" y="735.4151">zkp</text></g><!--cluster blockchain_api--><g class="cluster" data-entity="blockchain_api" data-source-line="61" data-uid="ent0016" id="cluster_blockchain_api"><path d="M391.5,114.18 L508.2939,114.18 A3.75,3.75 0 0 1 510.7939,116.68 L517.7939,136.4769 L548.5,136.4769 A2.5,2.5 0 0 1 551,138.9769 L551,275.87 A2.5,2.5 0 0 1 548.5,278.37 L391.5,278.37 A2.5,2.5 0 0 1 389,275.87 L389,116.68 A2.5,2.5 0 0 1 391.5,114.18" fill="none" style="stroke:#000000;stroke-width:1.5;"/><line style="stroke:#000000;stroke-width:1.5;" x1="389" x2="517.7939" y1="136.4769" y2="136.4769"/><text fill="#000000" font-family="sans-serif" font-size="14" font-weight="bold" lengthAdjust="spacing" textLength="115.7939" x="393" y="129.1751">blockchain_api</text></g><!--cluster client_app--><g class="cluster" data-entity="client_app" data-source-line="71" data-uid="ent0018" id="cluster_client_app"><path d="M156.5,376.56 L238.041,376.56 A3.75,3.75 0 0 1 240.541,379.06 L247.541,398.8569 L345.5,398.8569 A2.5,2.5 0 0 1 348,401.3569 L348,684.92 A2.5,2.5 0 0 1 345.5,687.42 L156.5,687.42 A2.5,2.5 0 0 1 154,684.92 L154,379.06 A2.5,2.5 0 0 1 156.5,376.56" fill="none" style="stroke:#000000;stroke-width:1.5;"/><line style="stroke:#000000;stroke-width:1.5;" x1="154" x2="247.541" y1="398.8569" y2="398.8569"/><text fill="#000000" font-family="sans-serif" font-size="14" font-weight="bold" lengthAdjust="spacing" textLength="80.541" x="158" y="391.5551">client_app</text></g><!--cluster strategy--><g class="cluster" data-entity="strategy" data-source-line="94" data-uid="ent0025" id="cluster_strategy"><path d="M423.5,376.56 L491.2119,376.56 A3.75,3.75 0 0 1 493.7119,379.06 L500.7119,398.8569 L696.5,398.8569 A2.5,2.5 0 0 1 699,401.3569 L699,684.92 A2.5,2.5 0 0 1 696.5,687.42 L423.5,687.42 A2.5,2.5 0 0 1 421,684.92 L421,379.06 A2.5,2.5 0 0 1 423.5,376.56" fill="none" style="stroke:#000000;stroke-width:1.5;"/><line style="stroke:#000000;stroke-width:1.5;" x1="421" x2="500.7119" y1="398.8569" y2="398.8569"/><text fill="#000000" font-family="sans-serif" font-size="14" font-weight="bold" lengthAdjust="spacing" textLength="66.7119" x="425" y="391.5551">strategy</text></g><!--class Net--><g class="entity" data-entity="Net" data-source-line="3" data-uid="ent0003" id="entity_Net"><rect fill="#F1F1F1" height="243.5625" rx="2.5" ry="2.5" style="stroke:#181818;stroke-width:0.5;" width="114.4092" x="193.8" y="84"/><ellipse cx="234.8253" cy="100" fill="#ADD1B2" rx="11" ry="11" style="stroke:#181818;stroke-width:1;"/><path d="M237.794,105.6406 Q237.2159,105.9375 236.5753,106.0781 Q235.9347,106.2344 235.2315,106.2344 Q232.7315,106.2344 231.4034,104.5938 Q230.0909,102.9375 230.0909,99.8125 Q230.0909,96.6875 231.4034,95.0313 Q232.7315,93.375 235.2315,93.375 Q235.9347,93.375 236.5753,93.5313 Q237.2315,93.6875 237.794,93.9844 L237.794,96.7031 Q237.169,96.125 236.5753,95.8594 Q235.9815,95.5781 235.3565,95.5781 Q234.0128,95.5781 233.3253,96.6563 Q232.6378,97.7188 232.6378,99.8125 Q232.6378,101.9063 233.3253,102.9844 Q234.0128,104.0469 235.3565,104.0469 Q235.9815,104.0469 236.5753,103.7813 Q237.169,103.5 237.794,102.9219 L237.794,105.6406 Z " fill="#000000"/><text fill="#000000" font-family="sans-serif" font-size="14" lengthAdjust="spacing" textLength="24.5752" x="254.6087" y="104.8467">Net</text><line style="stroke:#181818;stroke-width:0.5;" x1="194.8" x2="307.2092" y1="116" y2="116"/><text fill="#000000" font-family="sans-serif" font-size="14" lengthAdjust="spacing" textLength="42.3281" x="199.8" y="132.9951">conv1</text><text fill="#000000" font-family="sans-serif" font-size="14" lengthAdjust="spacing" textLength="29.9072" x="199.8" y="149.292">pool</text><text fill="#000000" font-family="sans-serif" font-size="14" lengthAdjust="spacing" textLength="42.3281" x="199.8" y="165.5889">conv2</text><text fill="#000000" font-family="sans-serif" font-size="14" lengthAdjust="spacing" textLength="21.5332" x="199.8" y="181.8857">fc1</text><text fill="#000000" font-family="sans-serif" font-size="14" lengthAdjust="spacing" textLength="21.5332" x="199.8" y="198.1826">fc2</text><text fill="#000000" font-family="sans-serif" font-size="14" lengthAdjust="spacing" textLength="21.5332" x="199.8" y="214.4795">fc3</text><line style="stroke:#181818;stroke-width:0.5;" x1="194.8" x2="307.2092" y1="221.7813" y2="221.7813"/><text fill="#000000" font-family="sans-serif" font-size="14" lengthAdjust="spacing" textLength="64.8457" x="199.8" y="238.7764">forward()</text><text fill="#000000" font-family="sans-serif" font-size="14" lengthAdjust="spacing" textLength="102.4092" x="199.8" y="255.0732">_get_weights()</text><text fill="#000000" font-family="sans-serif" font-size="14" lengthAdjust="spacing" textLength="100.8164" x="199.8" y="271.3701">_set_weights()</text><text fill="#000000" font-family="sans-serif" font-size="14" lengthAdjust="spacing" textLength="90.1318" x="199.8" y="287.667">_train_local()</text><text fill="#000000" font-family="sans-serif" font-size="14" lengthAdjust="spacing" textLength="44.8096" x="199.8" y="303.9639">_test()</text><text fill="#000000" font-family="sans-serif" font-size="14" lengthAdjust="spacing" textLength="61.0654" x="199.8" y="320.2607">__init__()</text></g><!--class AggregationSetup--><g class="entity" data-entity="AggregationSetup" data-source-line="21" data-uid="ent0006" id="entity_AggregationSetup"><rect fill="#F1F1F1" height="210.9688" rx="2.5" ry="2.5" style="stroke:#181818;stroke-width:0.5;" width="165.4873" x="297.26" y="755.42"/><ellipse cx="315.2909" cy="771.42" fill="#ADD1B2" rx="11" ry="11" style="stroke:#181818;stroke-width:1;"/><path d="M318.2597,777.0606 Q317.6815,777.3575 317.0409,777.4981 Q316.4003,777.6544 315.6972,777.6544 Q313.1972,777.6544 311.869,776.0138 Q310.5565,774.3575 310.5565,771.2325 Q310.5565,768.1075 311.869,766.4513 Q313.1972,764.795 315.6972,764.795 Q316.4003,764.795 317.0409,764.9513 Q317.6972,765.1075 318.2597,765.4044 L318.2597,768.1231 Q317.6347,767.545 317.0409,767.2794 Q316.4472,766.9981 315.8222,766.9981 Q314.4784,766.9981 313.7909,768.0763 Q313.1034,769.1388 313.1034,771.2325 Q313.1034,773.3263 313.7909,774.4044 Q314.4784,775.4669 315.8222,775.4669 Q316.4472,775.4669 317.0409,775.2013 Q317.6347,774.92 318.2597,774.3419 L318.2597,777.0606 Z " fill="#000000"/><text fill="#000000" font-family="sans-serif" font-size="14" lengthAdjust="spacing" textLength="126.752" x="329.9644" y="776.2667">AggregationSetup</text><line style="stroke:#181818;stroke-width:0.5;" x1="298.26" x2="461.7473" y1="787.42" y2="787.42"/><text fill="#000000" font-family="sans-serif" font-size="14" lengthAdjust="spacing" textLength="43.292" x="303.26" y="804.4151">circuit</text><text fill="#000000" font-family="sans-serif" font-size="14" lengthAdjust="spacing" textLength="82.4209" x="303.26" y="820.712">model_path</text><text fill="#000000" font-family="sans-serif" font-size="14" lengthAdjust="spacing" textLength="153.4873" x="303.26" y="837.0089">compiled_model_path</text><text fill="#000000" font-family="sans-serif" font-size="14" lengthAdjust="spacing" textLength="55.8223" x="303.26" y="853.3057">pk_path</text><text fill="#000000" font-family="sans-serif" font-size="14" lengthAdjust="spacing" textLength="55.2207" x="303.26" y="869.6026">vk_path</text><text fill="#000000" font-family="sans-serif" font-size="14" lengthAdjust="spacing" textLength="94.6572" x="303.26" y="885.8995">settings_path</text><line style="stroke:#181818;stroke-width:0.5;" x1="298.26" x2="461.7473" y1="893.2013" y2="893.2013"/><text fill="#000000" font-family="sans-serif" font-size="14" lengthAdjust="spacing" textLength="50.0801" x="303.26" y="910.1964">setup()</text><text fill="#000000" font-family="sans-serif" font-size="14" lengthAdjust="spacing" textLength="114.1123" x="303.26" y="926.4932">_export_model()</text><text fill="#000000" font-family="sans-serif" font-size="14" lengthAdjust="spacing" textLength="125.0977" x="303.26" y="942.7901">_setup_run_args()</text><text fill="#000000" font-family="sans-serif" font-size="14" lengthAdjust="spacing" textLength="61.0654" x="303.26" y="959.087">__init__()</text></g><!--class AggregationProver--><g class="entity" data-entity="AggregationProver" data-source-line="33" data-uid="ent0007" id="entity_AggregationProver"><rect fill="#F1F1F1" height="129.4844" rx="2.5" ry="2.5" style="stroke:#181818;stroke-width:0.5;" width="165.4873" x="544.26" y="796.16"/><ellipse cx="560.1899" cy="812.16" fill="#ADD1B2" rx="11" ry="11" style="stroke:#181818;stroke-width:1;"/><path d="M563.1586,817.8006 Q562.5805,818.0975 561.9399,818.2381 Q561.2993,818.3944 560.5961,818.3944 Q558.0961,818.3944 556.768,816.7538 Q555.4555,815.0975 555.4555,811.9725 Q555.4555,808.8475 556.768,807.1913 Q558.0961,805.535 560.5961,805.535 Q561.2993,805.535 561.9399,805.6913 Q562.5961,805.8475 563.1586,806.1444 L563.1586,808.8631 Q562.5336,808.285 561.9399,808.0194 Q561.3461,807.7381 560.7211,807.7381 Q559.3774,807.7381 558.6899,808.8163 Q558.0024,809.8788 558.0024,811.9725 Q558.0024,814.0663 558.6899,815.1444 Q559.3774,816.2069 560.7211,816.2069 Q561.3461,816.2069 561.9399,815.9413 Q562.5336,815.66 563.1586,815.0819 L563.1586,817.8006 Z " fill="#000000"/><text fill="#000000" font-family="sans-serif" font-size="14" lengthAdjust="spacing" textLength="131.4209" x="574.3965" y="817.0067">AggregationProver</text><line style="stroke:#181818;stroke-width:0.5;" x1="545.26" x2="708.7473" y1="828.16" y2="828.16"/><text fill="#000000" font-family="sans-serif" font-size="14" lengthAdjust="spacing" textLength="153.4873" x="550.26" y="845.1551">compiled_model_path</text><text fill="#000000" font-family="sans-serif" font-size="14" lengthAdjust="spacing" textLength="55.8223" x="550.26" y="861.452">pk_path</text><line style="stroke:#181818;stroke-width:0.5;" x1="545.26" x2="708.7473" y1="868.7538" y2="868.7538"/><text fill="#000000" font-family="sans-serif" font-size="14" lengthAdjust="spacing" textLength="134.251" x="550.26" y="885.7489">generate_witness()</text><text fill="#000000" font-family="sans-serif" font-size="14" lengthAdjust="spacing" textLength="51.0303" x="550.26" y="902.0457">prove()</text><text fill="#000000" font-family="sans-serif" font-size="14" lengthAdjust="spacing" textLength="61.0654" x="550.26" y="918.3426">__init__()</text></g><!--class AggregationVerifier--><g class="entity" data-entity="AggregationVerifier" data-source-line="40" data-uid="ent0008" id="entity_AggregationVerifier"><rect fill="#F1F1F1" height="113.1875" rx="2.5" ry="2.5" style="stroke:#181818;stroke-width:0.5;" width="169.0264" x="46.49" y="804.31"/><ellipse cx="61.49" cy="820.31" fill="#ADD1B2" rx="11" ry="11" style="stroke:#181818;stroke-width:1;"/><path d="M64.4588,825.9506 Q63.8806,826.2475 63.24,826.3881 Q62.5994,826.5444 61.8963,826.5444 Q59.3963,826.5444 58.0681,824.9038 Q56.7556,823.2475 56.7556,820.1225 Q56.7556,816.9975 58.0681,815.3413 Q59.3963,813.685 61.8963,813.685 Q62.5994,813.685 63.24,813.8413 Q63.8963,813.9975 64.4588,814.2944 L64.4588,817.0131 Q63.8338,816.435 63.24,816.1694 Q62.6463,815.8881 62.0213,815.8881 Q60.6775,815.8881 59.99,816.9663 Q59.3025,818.0288 59.3025,820.1225 Q59.3025,822.2163 59.99,823.2944 Q60.6775,824.3569 62.0213,824.3569 Q62.6463,824.3569 63.24,824.0913 Q63.8338,823.81 64.4588,823.2319 L64.4588,825.9506 Z " fill="#000000"/><text fill="#000000" font-family="sans-serif" font-size="14" lengthAdjust="spacing" textLength="137.0264" x="75.49" y="825.1567">AggregationVerifier</text><line style="stroke:#181818;stroke-width:0.5;" x1="47.49" x2="214.5164" y1="836.31" y2="836.31"/><text fill="#000000" font-family="sans-serif" font-size="14" lengthAdjust="spacing" textLength="94.6572" x="52.49" y="853.3051">settings_path</text><text fill="#000000" font-family="sans-serif" font-size="14" lengthAdjust="spacing" textLength="55.2207" x="52.49" y="869.602">vk_path</text><line style="stroke:#181818;stroke-width:0.5;" x1="47.49" x2="214.5164" y1="876.9038" y2="876.9038"/><text fill="#000000" font-family="sans-serif" font-size="14" lengthAdjust="spacing" textLength="50.6816" x="52.49" y="893.8989">verify()</text><text fill="#000000" font-family="sans-serif" font-size="14" lengthAdjust="spacing" textLength="61.0654" x="52.49" y="910.1957">__init__()</text></g><!--class AggregateModel--><g class="entity" data-entity="AggregateModel" data-source-line="46" data-uid="ent0009" id="entity_AggregateModel"><rect fill="#F1F1F1" height="80.5938" rx="2.5" ry="2.5" style="stroke:#181818;stroke-width:0.5;" width="147.3223" x="228.34" y="1027.39"/><ellipse cx="243.34" cy="1043.39" fill="#ADD1B2" rx="11" ry="11" style="stroke:#181818;stroke-width:1;"/><path d="M246.3088,1049.0306 Q245.7306,1049.3275 245.09,1049.4681 Q244.4494,1049.6244 243.7463,1049.6244 Q241.2463,1049.6244 239.9181,1047.9838 Q238.6056,1046.3275 238.6056,1043.2025 Q238.6056,1040.0775 239.9181,1038.4213 Q241.2463,1036.765 243.7463,1036.765 Q244.4494,1036.765 245.09,1036.9213 Q245.7463,1037.0775 246.3088,1037.3744 L246.3088,1040.0931 Q245.6838,1039.515 245.09,1039.2494 Q244.4963,1038.9681 243.8713,1038.9681 Q242.5275,1038.9681 241.84,1040.0463 Q241.1525,1041.1088 241.1525,1043.2025 Q241.1525,1045.2963 241.84,1046.3744 Q242.5275,1047.4369 243.8713,1047.4369 Q244.4963,1047.4369 245.09,1047.1713 Q245.6838,1046.89 246.3088,1046.3119 L246.3088,1049.0306 Z " fill="#000000"/><text fill="#000000" font-family="sans-serif" font-size="14" lengthAdjust="spacing" textLength="115.3223" x="257.34" y="1048.2367">AggregateModel</text><line style="stroke:#181818;stroke-width:0.5;" x1="229.34" x2="374.6623" y1="1059.39" y2="1059.39"/><line style="stroke:#181818;stroke-width:0.5;" x1="229.34" x2="374.6623" y1="1067.39" y2="1067.39"/><text fill="#000000" font-family="sans-serif" font-size="14" lengthAdjust="spacing" textLength="61.0654" x="234.34" y="1084.3851">__init__()</text><text fill="#000000" font-family="sans-serif" font-size="14" lengthAdjust="spacing" textLength="64.8457" x="234.34" y="1100.682">forward()</text></g><!--class FaultyAggregateModel--><g class="entity" data-entity="FaultyAggregateModel" data-source-line="50" data-uid="ent0010" id="entity_FaultyAggregateModel"><rect fill="#F1F1F1" height="80.5938" rx="2.5" ry="2.5" style="stroke:#181818;stroke-width:0.5;" width="190.4912" x="410.75" y="1027.39"/><ellipse cx="425.75" cy="1043.39" fill="#ADD1B2" rx="11" ry="11" style="stroke:#181818;stroke-width:1;"/><path d="M428.7188,1049.0306 Q428.1406,1049.3275 427.5,1049.4681 Q426.8594,1049.6244 426.1563,1049.6244 Q423.6563,1049.6244 422.3281,1047.9838 Q421.0156,1046.3275 421.0156,1043.2025 Q421.0156,1040.0775 422.3281,1038.4213 Q423.6563,1036.765 426.1563,1036.765 Q426.8594,1036.765 427.5,1036.9213 Q428.1563,1037.0775 428.7188,1037.3744 L428.7188,1040.0931 Q428.0938,1039.515 427.5,1039.2494 Q426.9063,1038.9681 426.2813,1038.9681 Q424.9375,1038.9681 424.25,1040.0463 Q423.5625,1041.1088 423.5625,1043.2025 Q423.5625,1045.2963 424.25,1046.3744 Q424.9375,1047.4369 426.2813,1047.4369 Q426.9063,1047.4369 427.5,1047.1713 Q428.0938,1046.89 428.7188,1046.3119 L428.7188,1049.0306 Z " fill="#000000"/><text fill="#000000" font-family="sans-serif" font-size="14" lengthAdjust="spacing" textLength="158.4912" x="439.75" y="1048.2367">FaultyAggregateModel</text><line style="stroke:#181818;stroke-width:0.5;" x1="411.75" x2="600.2412" y1="1059.39" y2="1059.39"/><line style="stroke:#181818;stroke-width:0.5;" x1="411.75" x2="600.2412" y1="1067.39" y2="1067.39"/><text fill="#000000" font-family="sans-serif" font-size="14" lengthAdjust="spacing" textLength="61.0654" x="416.75" y="1084.3851">__init__()</text><text fill="#000000" font-family="sans-serif" font-size="14" lengthAdjust="spacing" textLength="64.8457" x="416.75" y="1100.682">forward()</text></g><!--class BlockchainAPI--><g class="entity" data-entity="BlockchainAPI" data-source-line="63" data-uid="ent0017" id="entity_BlockchainAPI"><rect fill="#F1F1F1" height="113.1875" rx="2.5" ry="2.5" style="stroke:#181818;stroke-width:0.5;" width="129.9248" x="405.04" y="149.18"/><ellipse cx="420.04" cy="165.18" fill="#ADD1B2" rx="11" ry="11" style="stroke:#181818;stroke-width:1;"/><path d="M423.0088,170.8206 Q422.4306,171.1175 421.79,171.2581 Q421.1494,171.4144 420.4463,171.4144 Q417.9463,171.4144 416.6181,169.7738 Q415.3056,168.1175 415.3056,164.9925 Q415.3056,161.8675 416.6181,160.2113 Q417.9463,158.555 420.4463,158.555 Q421.1494,158.555 421.79,158.7113 Q422.4463,158.8675 423.0088,159.1644 L423.0088,161.8831 Q422.3838,161.305 421.79,161.0394 Q421.1963,160.7581 420.5713,160.7581 Q419.2275,160.7581 418.54,161.8363 Q417.8525,162.8988 417.8525,164.9925 Q417.8525,167.0863 418.54,168.1644 Q419.2275,169.2269 420.5713,169.2269 Q421.1963,169.2269 421.79,168.9613 Q422.3838,168.68 423.0088,168.1019 L423.0088,170.8206 Z " fill="#000000"/><text fill="#000000" font-family="sans-serif" font-size="14" lengthAdjust="spacing" textLength="97.9248" x="434.04" y="170.0267">BlockchainAPI</text><line style="stroke:#181818;stroke-width:0.5;" x1="406.04" x2="533.9648" y1="181.18" y2="181.18"/><text fill="#000000" font-family="sans-serif" font-size="14" lengthAdjust="spacing" textLength="58.8916" x="411.04" y="198.1751">base_url</text><line style="stroke:#181818;stroke-width:0.5;" x1="406.04" x2="533.9648" y1="205.4769" y2="205.4769"/><text fill="#000000" font-family="sans-serif" font-size="14" lengthAdjust="spacing" textLength="57.2578" x="411.04" y="222.472">invoke()</text><text fill="#000000" font-family="sans-serif" font-size="14" lengthAdjust="spacing" textLength="51.3379" x="411.04" y="238.7689">query()</text><text fill="#000000" font-family="sans-serif" font-size="14" lengthAdjust="spacing" textLength="61.0654" x="411.04" y="255.0657">__init__()</text></g><!--class FlowerClient--><g class="entity" data-entity="FlowerClient" data-source-line="73" data-uid="ent0019" id="entity_FlowerClient"><rect fill="#F1F1F1" height="259.8594" rx="2.5" ry="2.5" style="stroke:#181818;stroke-width:0.5;" width="161.9805" x="170.01" y="411.56"/><ellipse cx="204.4154" cy="427.56" fill="#ADD1B2" rx="11" ry="11" style="stroke:#181818;stroke-width:1;"/><path d="M207.3841,433.2006 Q206.806,433.4975 206.1654,433.6381 Q205.5247,433.7944 204.8216,433.7944 Q202.3216,433.7944 200.9935,432.1538 Q199.681,430.4975 199.681,427.3725 Q199.681,424.2475 200.9935,422.5913 Q202.3216,420.935 204.8216,420.935 Q205.5247,420.935 206.1654,421.0913 Q206.8216,421.2475 207.3841,421.5444 L207.3841,424.2631 Q206.7591,423.685 206.1654,423.4194 Q205.5716,423.1381 204.9466,423.1381 Q203.6029,423.1381 202.9154,424.2163 Q202.2279,425.2788 202.2279,427.3725 Q202.2279,429.4663 202.9154,430.5444 Q203.6029,431.6069 204.9466,431.6069 Q205.5716,431.6069 206.1654,431.3413 Q206.7591,431.06 207.3841,430.4819 L207.3841,433.2006 Z " fill="#000000"/><text fill="#000000" font-family="sans-serif" font-size="14" lengthAdjust="spacing" textLength="86.8574" x="222.7277" y="432.4067">FlowerClient</text><line style="stroke:#181818;stroke-width:0.5;" x1="171.01" x2="330.9905" y1="443.56" y2="443.56"/><text fill="#000000" font-family="sans-serif" font-size="14" lengthAdjust="spacing" textLength="22.9756" x="176.01" y="460.5551">net</text><text fill="#000000" font-family="sans-serif" font-size="14" lengthAdjust="spacing" textLength="76.877" x="176.01" y="476.852">trainloader</text><text fill="#000000" font-family="sans-serif" font-size="14" lengthAdjust="spacing" textLength="65.0439" x="176.01" y="493.1489">valloader</text><text fill="#000000" font-family="sans-serif" font-size="14" lengthAdjust="spacing" textLength="89.5508" x="176.01" y="509.4457">local_epochs</text><text fill="#000000" font-family="sans-serif" font-size="14" lengthAdjust="spacing" textLength="9.6455" x="176.01" y="525.7426">lr</text><text fill="#000000" font-family="sans-serif" font-size="14" lengthAdjust="spacing" textLength="45.9854" x="176.01" y="542.0395">device</text><text fill="#000000" font-family="sans-serif" font-size="14" lengthAdjust="spacing" textLength="80.917" x="176.01" y="558.3364">client_state</text><text fill="#000000" font-family="sans-serif" font-size="14" lengthAdjust="spacing" textLength="21.3555" x="176.01" y="574.6332">api</text><line style="stroke:#181818;stroke-width:0.5;" x1="171.01" x2="330.9905" y1="581.935" y2="581.935"/><text fill="#000000" font-family="sans-serif" font-size="14" lengthAdjust="spacing" textLength="25.2314" x="176.01" y="598.9301">fit()</text><text fill="#000000" font-family="sans-serif" font-size="14" lengthAdjust="spacing" textLength="71.8457" x="176.01" y="615.227">evaluate()</text><text fill="#000000" font-family="sans-serif" font-size="14" lengthAdjust="spacing" textLength="107.9873" x="176.01" y="631.5239">_verify_inputs()</text><text fill="#000000" font-family="sans-serif" font-size="14" lengthAdjust="spacing" textLength="149.9805" x="176.01" y="647.8207">_submit_client_data()</text><text fill="#000000" font-family="sans-serif" font-size="14" lengthAdjust="spacing" textLength="61.0654" x="176.01" y="664.1176">__init__()</text></g><!--class BlockchainStrategy--><g class="entity" data-entity="BlockchainStrategy" data-source-line="96" data-uid="ent0026" id="entity_BlockchainStrategy"><rect fill="#F1F1F1" height="259.8594" rx="2.5" ry="2.5" style="stroke:#181818;stroke-width:0.5;" width="245.1055" x="437.45" y="411.56"/><ellipse cx="487.8719" cy="427.56" fill="#ADD1B2" rx="11" ry="11" style="stroke:#181818;stroke-width:1;"/><path d="M490.8406,433.2006 Q490.2625,433.4975 489.6219,433.6381 Q488.9813,433.7944 488.2781,433.7944 Q485.7781,433.7944 484.45,432.1538 Q483.1375,430.4975 483.1375,427.3725 Q483.1375,424.2475 484.45,422.5913 Q485.7781,420.935 488.2781,420.935 Q488.9813,420.935 489.6219,421.0913 Q490.2781,421.2475 490.8406,421.5444 L490.8406,424.2631 Q490.2156,423.685 489.6219,423.4194 Q489.0281,423.1381 488.4031,423.1381 Q487.0594,423.1381 486.3719,424.2163 Q485.6844,425.2788 485.6844,427.3725 Q485.6844,429.4663 486.3719,430.5444 Q487.0594,431.6069 488.4031,431.6069 Q489.0281,431.6069 489.6219,431.3413 Q490.2156,431.06 490.8406,430.4819 L490.8406,433.2006 Z " fill="#000000"/><text fill="#000000" font-family="sans-serif" font-size="14" lengthAdjust="spacing" textLength="135.7617" x="508.3719" y="432.4067">BlockchainStrategy</text><line style="stroke:#181818;stroke-width:0.5;" x1="438.45" x2="681.5555" y1="443.56" y2="443.56"/><text fill="#000000" font-family="sans-serif" font-size="14" lengthAdjust="spacing" textLength="75.0859" x="443.45" y="460.5551">fraction_fit</text><text fill="#000000" font-family="sans-serif" font-size="14" lengthAdjust="spacing" textLength="121.7002" x="443.45" y="476.852">fraction_evaluate</text><text fill="#000000" font-family="sans-serif" font-size="14" lengthAdjust="spacing" textLength="149.3379" x="443.45" y="493.1489">min_available_clients</text><text fill="#000000" font-family="sans-serif" font-size="14" lengthAdjust="spacing" textLength="233.1055" x="443.45" y="509.4457">evaluate_metrics_aggregation_fn</text><text fill="#000000" font-family="sans-serif" font-size="14" lengthAdjust="spacing" textLength="126.7041" x="443.45" y="525.7426">initial_parameters</text><text fill="#000000" font-family="sans-serif" font-size="14" lengthAdjust="spacing" textLength="109.3887" x="443.45" y="542.0395">on_fit_config_fn</text><text fill="#000000" font-family="sans-serif" font-size="14" lengthAdjust="spacing" textLength="86.6318" x="443.45" y="558.3364">num_rounds</text><line style="stroke:#181818;stroke-width:0.5;" x1="438.45" x2="681.5555" y1="565.6381" y2="565.6381"/><text fill="#000000" font-family="sans-serif" font-size="14" lengthAdjust="spacing" textLength="104.5215" x="443.45" y="582.6332">aggregate_fit()</text><text fill="#000000" font-family="sans-serif" font-size="14" lengthAdjust="spacing" textLength="155.1895" x="443.45" y="598.9301">_verify_local_models()</text><text fill="#000000" font-family="sans-serif" font-size="14" lengthAdjust="spacing" textLength="204.7637" x="443.45" y="615.227">_submit_aggregated_model()</text><text fill="#000000" font-family="sans-serif" font-size="14" lengthAdjust="spacing" textLength="134.6816" x="443.45" y="631.5239">_save_client_data()</text><text fill="#000000" font-family="sans-serif" font-size="14" lengthAdjust="spacing" textLength="200.3682" x="443.45" y="647.8207">_save_aggregated_weights()</text><text fill="#000000" font-family="sans-serif" font-size="14" lengthAdjust="spacing" textLength="61.0654" x="443.45" y="664.1176">__init__()</text></g><!--reverse link AggregationSetup to AggregateModel--><g class="link" data-entity-1="AggregationSetup" data-entity-2="AggregateModel" data-source-line="54" data-uid="lnk11" id="link_AggregationSetup_AggregateModel"><path codeLine="54" d="M335.817,977.9034 C327.567,999.5534 323.65,1009.85 316.99,1027.34" fill="none" id="AggregationSetup-backto-AggregateModel" style="stroke:#181818;stroke-width:1;"/><polygon fill="none" points="340.09,966.69,334.2157,970.8724,335.817,977.9034,341.6913,973.7211,340.09,966.69" style="stroke:#181818;stroke-width:1;"/></g><!--reverse link AggregationSetup to FaultyAggregateModel--><g class="link" data-entity-1="AggregationSetup" data-entity-2="FaultyAggregateModel" data-source-line="55" data-uid="lnk12" id="link_AggregationSetup_FaultyAggregateModel"><path codeLine="55" d="M450.7681,976.9105 C464.0881,998.5605 471.03,1009.85 481.79,1027.34" fill="none" id="AggregationSetup-backto-FaultyAggregateModel" style="stroke:#181818;stroke-width:1;"/><polygon fill="none" points="444.48,966.69,444.2172,973.8963,450.7681,976.9105,451.0309,969.7042,444.48,966.69" style="stroke:#181818;stroke-width:1;"/></g><!--reverse link AggregationSetup to AggregationProver--><g class="link" data-entity-1="AggregationSetup" data-entity-2="AggregationProver" data-source-line="56" data-uid="lnk14" id="link_AggregationSetup_AggregationProver"><path codeLine="56" d="M468.93,860.9 C495,860.9 517.78,860.9 543.86,860.9" fill="none" id="AggregationSetup-backto-AggregationProver" style="stroke:#181818;stroke-width:1;stroke-dasharray:7.0,7.0;"/><polygon fill="#181818" points="462.93,860.9,471.93,864.9,467.93,860.9,471.93,856.9,462.93,860.9" style="stroke:#181818;stroke-width:1;"/><text fill="#000000" font-family="sans-serif" font-size="13" lengthAdjust="spacing" textLength="45.6904" x="481" y="853.9669">&#171;uses&#187;</text></g><!--link AggregationVerifier to AggregationSetup--><g class="link" data-entity-1="AggregationVerifier" data-entity-2="AggregationSetup" data-source-line="57" data-uid="lnk15" id="link_AggregationVerifier_AggregationSetup"><path codeLine="57" d="M216,860.9 C242.2,860.9 265.01,860.9 291.07,860.9" fill="none" id="AggregationVerifier-to-AggregationSetup" style="stroke:#181818;stroke-width:1;stroke-dasharray:7.0,7.0;"/><polygon fill="#181818" points="297.07,860.9,288.07,856.9,292.07,860.9,288.07,864.9,297.07,860.9" style="stroke:#181818;stroke-width:1;"/><text fill="#000000" font-family="sans-serif" font-size="13" lengthAdjust="spacing" textLength="45.6904" x="233.88" y="853.9669">&#171;uses&#187;</text></g><!--link Net to FlowerClient--><g class="link" data-entity-1="Net" data-entity-2="FlowerClient" data-source-line="88" data-uid="lnk21" id="link_Net_FlowerClient"><path codeLine="88" d="M251,327.73 C251,354.87 251,371.76 251,399.23" fill="none" id="Net-to-FlowerClient" style="stroke:#181818;stroke-width:1;"/><polygon fill="#181818" points="251,411.23,255,405.23,251,399.23,247,405.23,251,411.23" style="stroke:#181818;stroke-width:1;"/></g><!--link BlockchainAPI to FlowerClient--><g class="link" data-entity-1="BlockchainAPI" data-entity-2="FlowerClient" data-source-line="89" data-uid="lnk23" id="link_BlockchainAPI_FlowerClient"><path codeLine="89" d="M433.34,262.63 C405.83,304.57 373.6535,353.5872 338.9535,406.4672" fill="none" id="BlockchainAPI-to-FlowerClient" style="stroke:#181818;stroke-width:1;"/><polygon fill="none" points="332.37,416.5,339.006,413.6781,338.9535,406.4672,332.3175,409.2891,332.37,416.5" style="stroke:#181818;stroke-width:1;"/></g><!--reverse link FlowerClient to AggregationVerifier--><g class="link" data-entity-1="FlowerClient" data-entity-2="AggregationVerifier" data-source-line="90" data-uid="lnk24" id="link_FlowerClient_AggregationVerifier"><path codeLine="90" d="M197.9475,682.815 C180.4975,728.985 165.97,767.4 152.09,804.11" fill="none" id="FlowerClient-backto-AggregationVerifier" style="stroke:#181818;stroke-width:1;"/><polygon fill="#181818" points="202.19,671.59,196.3271,675.7883,197.9475,682.815,203.8104,678.6167,202.19,671.59" style="stroke:#181818;stroke-width:1;"/></g><!--link BlockchainAPI to BlockchainStrategy--><g class="link" data-entity-1="BlockchainAPI" data-entity-2="BlockchainStrategy" data-source-line="111" data-uid="lnk28" id="link_BlockchainAPI_BlockchainStrategy"><path codeLine="111" d="M485.06,262.63 C496,303.17 508.1252,348.134 522.0152,399.634" fill="none" id="BlockchainAPI-to-BlockchainStrategy" style="stroke:#181818;stroke-width:1;"/><polygon fill="none" points="525.14,411.22,527.4396,404.3854,522.0152,399.634,519.7156,406.4686,525.14,411.22" style="stroke:#181818;stroke-width:1;"/></g><!--reverse link BlockchainStrategy to AggregationProver--><g class="link" data-entity-1="BlockchainStrategy" data-entity-2="AggregationProver" data-source-line="112" data-uid="lnk29" id="link_BlockchainStrategy_AggregationProver"><path codeLine="112" d="M589.7279,683.3314 C598.7479,726.0714 605.92,760.04 613.45,795.72" fill="none" id="BlockchainStrategy-backto-AggregationProver" style="stroke:#181818;stroke-width:1;"/><polygon fill="#181818" points="587.25,671.59,584.5752,678.2867,589.7279,683.3314,592.4028,676.6347,587.25,671.59" style="stroke:#181818;stroke-width:1;"/></g><!--SRC=[fLLDYzim4BtxL_ZO5XBOzbQMm7PXeOUMXOLUnKIUECAAfEh3QLhotoivYJssbQHGdwmtqkZDp9kH0Tv0ZQMpVEd1DUMVeYZZnoKuLtv77u7o_6sqtOEjthtl4LQZPtiKzTOx2hiyx2q8nQJc84SmEa_NJ2ZX6IDGnqYhzg57ZDQoeAQF0qt-GFuf_gdxFnR7eZ0axj-D6OVzLDSMQ_12gpVqmP0SkBIcPF6NqTQpdQvGJb8G3BD1CR2rknqU5vO7uVjrvumPy5iIuiu8YHNBs4mpNhUJTQJYXQhTW1xpmRvQtQ8bqTQeq897jXTUeQDXcBJtJbZ_oFaAcnzenKQC-BG9Ejo-THxjD2Uv-_1RuaYkodWUwvzwUO4W_U5_VSrafnUB2S7h-t8KfhlFzLqk9MxyQkxdS_du61owrMfwig_5ScbJMzy-F6smTMpvXczJyuCHurxxqjkUNh-Id0dLweOAx6T0UxW_9jRWa0KhywtEfK3b8uj9nxz8lKVxt5dfn1DqC64BCiJSKX8dHKOg9an6O5Zl8htpXHLukCzTuJ03kbafDLHe1n63d23TB6LeDD-w0Hpi5RQ2uz2H9pREnoXwC9Q4Y72KYG-BO1Rf5PYRT6SQLIztVf5JqKmWpgSfKn-kIUDjiFUiBqfduo9TAdBAJ3TvSdNfZrUPqGqjNYjSPoE7CwzSlhOR2ppb8D4jPk15MiCJa7gb1I5XBIzat4o9R8VU2kvwHjq5YZIHy0BIwBKGjw8TN9oOiFXqRaHDpwYmOrO7LJcYYamfhWaWitKYWzCOAev_0G00]--></g></svg>